<svg xmlns="http://www.w3.org/2000/svg" version="1.1" xmlns:xlink="http://www.w3.org/1999/xlink" xmlns:svgjs="http://svgjs.com/svgjs" width="1440" height="1000" preserveAspectRatio="none" viewBox="0 0 1440 1000"><g mask="url(&quot;#SvgjsMask2318&quot;)" fill="none"><rect width="1440" height="1000" x="0" y="0" fill="url(#SvgjsLinearGradient2319)"></rect><path d="M15.85 -49.43L73.01 -16.43L73.01 49.57L15.85 82.57L-41.31 49.57L-41.31 -16.43zM15.85 346.57L73.01 379.57L73.01 445.57L15.85 478.57L-41.31 445.57L-41.31 379.57zM15.85 742.57L73.01 775.57L73.01 841.57L15.85 874.57L-41.31 841.57L-41.31 775.57zM73.01 841.57L130.17 874.57L130.17 940.57L73.01 973.57L15.85 940.57L15.85 874.57zM187.33 49.57L244.49 82.57L244.49 148.57L187.33 181.57L130.17 148.57L130.17 82.57zM187.33 247.57L244.49 280.57L244.49 346.57L187.33 379.57L130.17 346.57L130.17 280.57zM130.17 346.57L187.33 379.57L187.33 445.57L130.17 478.57L73.01 445.57L73.01 379.57zM187.33 643.57L244.49 676.57L244.49 742.57L187.33 775.57L130.17 742.57L130.17 676.57zM244.49 -49.43L301.65 -16.43L301.65 49.57L244.49 82.57L187.33 49.57L187.33 -16.43zM244.49 148.57L301.65 181.57L301.65 247.57L244.49 280.57L187.33 247.57L187.33 181.57zM244.49 346.57L301.65 379.57L301.65 445.57L244.49 478.57L187.33 445.57L187.33 379.57zM244.49 742.57L301.65 775.57L301.65 841.57L244.49 874.57L187.33 841.57L187.33 775.57zM301.65 841.57L358.81 874.57L358.81 940.57L301.65 973.57L244.49 940.57L244.49 874.57zM244.49 940.57L301.65 973.57L301.65 1039.57L244.49 1072.57L187.33 1039.57L187.33 973.57zM415.97 49.57L473.12 82.57L473.12 148.57L415.97 181.57L358.81 148.57L358.81 82.57zM358.81 544.57L415.97 577.57L415.97 643.57L358.81 676.57L301.65 643.57L301.65 577.57zM415.97 643.57L473.12 676.57L473.12 742.57L415.97 775.57L358.81 742.57L358.81 676.57zM358.81 742.57L415.97 775.57L415.97 841.57L358.81 874.57L301.65 841.57L301.65 775.57zM473.12 -49.43L530.28 -16.43L530.28 49.57L473.12 82.57L415.97 49.57L415.97 -16.43zM473.12 148.57L530.28 181.57L530.28 247.57L473.12 280.57L415.97 247.57L415.97 181.57zM473.12 346.57L530.28 379.57L530.28 445.57L473.12 478.57L415.97 445.57L415.97 379.57zM530.28 445.57L587.44 478.57L587.44 544.57L530.28 577.57L473.12 544.57L473.12 478.57zM473.12 544.57L530.28 577.57L530.28 643.57L473.12 676.57L415.97 643.57L415.97 577.57zM530.28 841.57L587.44 874.57L587.44 940.57L530.28 973.57L473.12 940.57L473.12 874.57zM473.12 940.57L530.28 973.57L530.28 1039.57L473.12 1072.57L415.97 1039.57L415.97 973.57zM587.44 346.57L644.6 379.57L644.6 445.57L587.44 478.57L530.28 445.57L530.28 379.57zM644.6 445.57L701.76 478.57L701.76 544.57L644.6 577.57L587.44 544.57L587.44 478.57zM644.6 841.57L701.76 874.57L701.76 940.57L644.6 973.57L587.44 940.57L587.44 874.57zM587.44 940.57L644.6 973.57L644.6 1039.57L587.44 1072.57L530.28 1039.57L530.28 973.57zM758.92 247.57L816.08 280.57L816.08 346.57L758.92 379.57L701.76 346.57L701.76 280.57zM701.76 346.57L758.92 379.57L758.92 445.57L701.76 478.57L644.6 445.57L644.6 379.57zM701.76 742.57L758.92 775.57L758.92 841.57L701.76 874.57L644.6 841.57L644.6 775.57zM701.76 940.57L758.92 973.57L758.92 1039.57L701.76 1072.57L644.6 1039.57L644.6 973.57zM816.08 -49.43L873.24 -16.43L873.24 49.57L816.08 82.57L758.92 49.57L758.92 -16.43zM873.24 49.57L930.4 82.57L930.4 148.57L873.24 181.57L816.08 148.57L816.08 82.57zM816.08 346.57L873.24 379.57L873.24 445.57L816.08 478.57L758.92 445.57L758.92 379.57zM816.08 544.57L873.24 577.57L873.24 643.57L816.08 676.57L758.92 643.57L758.92 577.57zM816.08 742.57L873.24 775.57L873.24 841.57L816.08 874.57L758.92 841.57L758.92 775.57zM816.08 940.57L873.24 973.57L873.24 1039.57L816.08 1072.57L758.92 1039.57L758.92 973.57zM987.56 49.57L1044.72 82.57L1044.72 148.57L987.56 181.57L930.4 148.57L930.4 82.57zM987.56 247.57L1044.72 280.57L1044.72 346.57L987.56 379.57L930.4 346.57L930.4 280.57zM930.4 742.57L987.56 775.57L987.56 841.57L930.4 874.57L873.24 841.57L873.24 775.57zM930.4 940.57L987.56 973.57L987.56 1039.57L930.4 1072.57L873.24 1039.57L873.24 973.57zM1101.88 49.57L1159.04 82.57L1159.04 148.57L1101.88 181.57L1044.72 148.57L1044.72 82.57zM1044.72 148.57L1101.88 181.57L1101.88 247.57L1044.72 280.57L987.56 247.57L987.56 181.57zM1101.88 247.57L1159.04 280.57L1159.04 346.57L1101.88 379.57L1044.72 346.57L1044.72 280.57zM1044.72 346.57L1101.88 379.57L1101.88 445.57L1044.72 478.57L987.56 445.57L987.56 379.57zM1101.88 445.57L1159.04 478.57L1159.04 544.57L1101.88 577.57L1044.72 544.57L1044.72 478.57zM1044.72 544.57L1101.88 577.57L1101.88 643.57L1044.72 676.57L987.56 643.57L987.56 577.57zM1101.88 841.57L1159.04 874.57L1159.04 940.57L1101.88 973.57L1044.72 940.57L1044.72 874.57zM1044.72 940.57L1101.88 973.57L1101.88 1039.57L1044.72 1072.57L987.56 1039.57L987.56 973.57zM1216.2 445.57L1273.35 478.57L1273.35 544.57L1216.2 577.57L1159.04 544.57L1159.04 478.57zM1159.04 742.57L1216.2 775.57L1216.2 841.57L1159.04 874.57L1101.88 841.57L1101.88 775.57zM1273.35 -49.43L1330.51 -16.43L1330.51 49.57L1273.35 82.57L1216.2 49.57L1216.2 -16.43zM1330.51 49.57L1387.67 82.57L1387.67 148.57L1330.51 181.57L1273.35 148.57L1273.35 82.57zM1273.35 148.57L1330.51 181.57L1330.51 247.57L1273.35 280.57L1216.2 247.57L1216.2 181.57zM1330.51 247.57L1387.67 280.57L1387.67 346.57L1330.51 379.57L1273.35 346.57L1273.35 280.57zM1330.51 445.57L1387.67 478.57L1387.67 544.57L1330.51 577.57L1273.35 544.57L1273.35 478.57zM1330.51 841.57L1387.67 874.57L1387.67 940.57L1330.51 973.57L1273.35 940.57L1273.35 874.57zM1387.67 -49.43L1444.83 -16.43L1444.83 49.57L1387.67 82.57L1330.51 49.57L1330.51 -16.43zM1444.83 49.57L1501.99 82.57L1501.99 148.57L1444.83 181.57L1387.67 148.57L1387.67 82.57zM1387.67 346.57L1444.83 379.57L1444.83 445.57L1387.67 478.57L1330.51 445.57L1330.51 379.57zM1444.83 841.57L1501.99 874.57L1501.99 940.57L1444.83 973.57L1387.67 940.57L1387.67 874.57zM1387.67 940.57L1444.83 973.57L1444.83 1039.57L1387.67 1072.57L1330.51 1039.57L1330.51 973.57z" stroke="url(#SvgjsLinearGradient2320)" stroke-width="2"></path><path d="M9.25 -49.43 a6.6 6.6 0 1 0 13.2 0 a6.6 6.6 0 1 0 -13.2 0zM66.41 -16.43 a6.6 6.6 0 1 0 13.2 0 a6.6 6.6 0 1 0 -13.2 0zM66.41 49.57 a6.6 6.6 0 1 0 13.2 0 a6.6 6.6 0 1 0 -13.2 0zM9.25 82.57 a6.6 6.6 0 1 0 13.2 0 a6.6 6.6 0 1 0 -13.2 0zM-47.91 49.57 a6.6 6.6 0 1 0 13.2 0 a6.6 6.6 0 1 0 -13.2 0zM-47.91 -16.43 a6.6 6.6 0 1 0 13.2 0 a6.6 6.6 0 1 0 -13.2 0zM9.25 346.57 a6.6 6.6 0 1 0 13.2 0 a6.6 6.6 0 1 0 -13.2 0zM66.41 379.57 a6.6 6.6 0 1 0 13.2 0 a6.6 6.6 0 1 0 -13.2 0zM66.41 445.57 a6.6 6.6 0 1 0 13.2 0 a6.6 6.6 0 1 0 -13.2 0zM9.25 478.57 a6.6 6.6 0 1 0 13.2 0 a6.6 6.6 0 1 0 -13.2 0zM-47.91 445.57 a6.6 6.6 0 1 0 13.2 0 a6.6 6.6 0 1 0 -13.2 0zM-47.91 379.57 a6.6 6.6 0 1 0 13.2 0 a6.6 6.6 0 1 0 -13.2 0zM9.25 742.57 a6.6 6.6 0 1 0 13.2 0 a6.6 6.6 0 1 0 -13.2 0zM66.41 775.57 a6.6 6.6 0 1 0 13.2 0 a6.6 6.6 0 1 0 -13.2 0zM66.41 841.57 a6.6 6.6 0 1 0 13.2 0 a6.6 6.6 0 1 0 -13.2 0zM9.25 874.57 a6.6 6.6 0 1 0 13.2 0 a6.6 6.6 0 1 0 -13.2 0zM-47.91 841.57 a6.6 6.6 0 1 0 13.2 0 a6.6 6.6 0 1 0 -13.2 0zM-47.91 775.57 a6.6 6.6 0 1 0 13.2 0 a6.6 6.6 0 1 0 -13.2 0zM123.57 874.57 a6.6 6.6 0 1 0 13.2 0 a6.6 6.6 0 1 0 -13.2 0zM123.57 940.57 a6.6 6.6 0 1 0 13.2 0 a6.6 6.6 0 1 0 -13.2 0zM66.41 973.57 a6.6 6.6 0 1 0 13.2 0 a6.6 6.6 0 1 0 -13.2 0zM9.25 940.57 a6.6 6.6 0 1 0 13.2 0 a6.6 6.6 0 1 0 -13.2 0zM180.73 49.57 a6.6 6.6 0 1 0 13.2 0 a6.6 6.6 0 1 0 -13.2 0zM237.89 82.57 a6.6 6.6 0 1 0 13.2 0 a6.6 6.6 0 1 0 -13.2 0zM237.89 148.57 a6.6 6.6 0 1 0 13.2 0 a6.6 6.6 0 1 0 -13.2 0zM180.73 181.57 a6.6 6.6 0 1 0 13.2 0 a6.6 6.6 0 1 0 -13.2 0zM123.57 148.57 a6.6 6.6 0 1 0 13.2 0 a6.6 6.6 0 1 0 -13.2 0zM123.57 82.57 a6.6 6.6 0 1 0 13.2 0 a6.6 6.6 0 1 0 -13.2 0zM180.73 247.57 a6.6 6.6 0 1 0 13.2 0 a6.6 6.6 0 1 0 -13.2 0zM237.89 280.57 a6.6 6.6 0 1 0 13.2 0 a6.6 6.6 0 1 0 -13.2 0zM237.89 346.57 a6.6 6.6 0 1 0 13.2 0 a6.6 6.6 0 1 0 -13.2 0zM180.73 379.57 a6.6 6.6 0 1 0 13.2 0 a6.6 6.6 0 1 0 -13.2 0zM123.57 346.57 a6.6 6.6 0 1 0 13.2 0 a6.6 6.6 0 1 0 -13.2 0zM123.57 280.57 a6.6 6.6 0 1 0 13.2 0 a6.6 6.6 0 1 0 -13.2 0zM180.73 445.57 a6.6 6.6 0 1 0 13.2 0 a6.6 6.6 0 1 0 -13.2 0zM123.57 478.57 a6.6 6.6 0 1 0 13.2 0 a6.6 6.6 0 1 0 -13.2 0zM180.73 643.57 a6.6 6.6 0 1 0 13.2 0 a6.6 6.6 0 1 0 -13.2 0zM237.89 676.57 a6.6 6.6 0 1 0 13.2 0 a6.6 6.6 0 1 0 -13.2 0zM237.89 742.57 a6.6 6.6 0 1 0 13.2 0 a6.6 6.6 0 1 0 -13.2 0zM180.73 775.57 a6.6 6.6 0 1 0 13.2 0 a6.6 6.6 0 1 0 -13.2 0zM123.57 742.57 a6.6 6.6 0 1 0 13.2 0 a6.6 6.6 0 1 0 -13.2 0zM123.57 676.57 a6.6 6.6 0 1 0 13.2 0 a6.6 6.6 0 1 0 -13.2 0zM237.89 -49.43 a6.6 6.6 0 1 0 13.2 0 a6.6 6.6 0 1 0 -13.2 0zM295.05 -16.43 a6.6 6.6 0 1 0 13.2 0 a6.6 6.6 0 1 0 -13.2 0zM295.05 49.57 a6.6 6.6 0 1 0 13.2 0 a6.6 6.6 0 1 0 -13.2 0zM180.73 -16.43 a6.6 6.6 0 1 0 13.2 0 a6.6 6.6 0 1 0 -13.2 0zM295.05 181.57 a6.6 6.6 0 1 0 13.2 0 a6.6 6.6 0 1 0 -13.2 0zM295.05 247.57 a6.6 6.6 0 1 0 13.2 0 a6.6 6.6 0 1 0 -13.2 0zM295.05 379.57 a6.6 6.6 0 1 0 13.2 0 a6.6 6.6 0 1 0 -13.2 0zM295.05 445.57 a6.6 6.6 0 1 0 13.2 0 a6.6 6.6 0 1 0 -13.2 0zM237.89 478.57 a6.6 6.6 0 1 0 13.2 0 a6.6 6.6 0 1 0 -13.2 0zM295.05 775.57 a6.6 6.6 0 1 0 13.2 0 a6.6 6.6 0 1 0 -13.2 0zM295.05 841.57 a6.6 6.6 0 1 0 13.2 0 a6.6 6.6 0 1 0 -13.2 0zM237.89 874.57 a6.6 6.6 0 1 0 13.2 0 a6.6 6.6 0 1 0 -13.2 0zM180.73 841.57 a6.6 6.6 0 1 0 13.2 0 a6.6 6.6 0 1 0 -13.2 0zM352.21 874.57 a6.6 6.6 0 1 0 13.2 0 a6.6 6.6 0 1 0 -13.2 0zM352.21 940.57 a6.6 6.6 0 1 0 13.2 0 a6.6 6.6 0 1 0 -13.2 0zM295.05 973.57 a6.6 6.6 0 1 0 13.2 0 a6.6 6.6 0 1 0 -13.2 0zM237.89 940.57 a6.6 6.6 0 1 0 13.2 0 a6.6 6.6 0 1 0 -13.2 0zM295.05 1039.57 a6.6 6.6 0 1 0 13.2 0 a6.6 6.6 0 1 0 -13.2 0zM237.89 1072.57 a6.6 6.6 0 1 0 13.2 0 a6.6 6.6 0 1 0 -13.2 0zM180.73 1039.57 a6.6 6.6 0 1 0 13.2 0 a6.6 6.6 0 1 0 -13.2 0zM180.73 973.57 a6.6 6.6 0 1 0 13.2 0 a6.6 6.6 0 1 0 -13.2 0zM409.37 49.57 a6.6 6.6 0 1 0 13.2 0 a6.6 6.6 0 1 0 -13.2 0zM466.52 82.57 a6.6 6.6 0 1 0 13.2 0 a6.6 6.6 0 1 0 -13.2 0zM466.52 148.57 a6.6 6.6 0 1 0 13.2 0 a6.6 6.6 0 1 0 -13.2 0zM409.37 181.57 a6.6 6.6 0 1 0 13.2 0 a6.6 6.6 0 1 0 -13.2 0zM352.21 148.57 a6.6 6.6 0 1 0 13.2 0 a6.6 6.6 0 1 0 -13.2 0zM352.21 82.57 a6.6 6.6 0 1 0 13.2 0 a6.6 6.6 0 1 0 -13.2 0zM352.21 544.57 a6.6 6.6 0 1 0 13.2 0 a6.6 6.6 0 1 0 -13.2 0zM409.37 577.57 a6.6 6.6 0 1 0 13.2 0 a6.6 6.6 0 1 0 -13.2 0zM409.37 643.57 a6.6 6.6 0 1 0 13.2 0 a6.6 6.6 0 1 0 -13.2 0zM352.21 676.57 a6.6 6.6 0 1 0 13.2 0 a6.6 6.6 0 1 0 -13.2 0zM295.05 643.57 a6.6 6.6 0 1 0 13.2 0 a6.6 6.6 0 1 0 -13.2 0zM295.05 577.57 a6.6 6.6 0 1 0 13.2 0 a6.6 6.6 0 1 0 -13.2 0zM466.52 676.57 a6.6 6.6 0 1 0 13.2 0 a6.6 6.6 0 1 0 -13.2 0zM466.52 742.57 a6.6 6.6 0 1 0 13.2 0 a6.6 6.6 0 1 0 -13.2 0zM409.37 775.57 a6.6 6.6 0 1 0 13.2 0 a6.6 6.6 0 1 0 -13.2 0zM352.21 742.57 a6.6 6.6 0 1 0 13.2 0 a6.6 6.6 0 1 0 -13.2 0zM409.37 841.57 a6.6 6.6 0 1 0 13.2 0 a6.6 6.6 0 1 0 -13.2 0zM466.52 -49.43 a6.6 6.6 0 1 0 13.2 0 a6.6 6.6 0 1 0 -13.2 0zM523.68 -16.43 a6.6 6.6 0 1 0 13.2 0 a6.6 6.6 0 1 0 -13.2 0zM523.68 49.57 a6.6 6.6 0 1 0 13.2 0 a6.6 6.6 0 1 0 -13.2 0zM409.37 -16.43 a6.6 6.6 0 1 0 13.2 0 a6.6 6.6 0 1 0 -13.2 0zM523.68 181.57 a6.6 6.6 0 1 0 13.2 0 a6.6 6.6 0 1 0 -13.2 0zM523.68 247.57 a6.6 6.6 0 1 0 13.2 0 a6.6 6.6 0 1 0 -13.2 0zM466.52 280.57 a6.6 6.6 0 1 0 13.2 0 a6.6 6.6 0 1 0 -13.2 0zM409.37 247.57 a6.6 6.6 0 1 0 13.2 0 a6.6 6.6 0 1 0 -13.2 0zM466.52 346.57 a6.6 6.6 0 1 0 13.2 0 a6.6 6.6 0 1 0 -13.2 0zM523.68 379.57 a6.6 6.6 0 1 0 13.2 0 a6.6 6.6 0 1 0 -13.2 0zM523.68 445.57 a6.6 6.6 0 1 0 13.2 0 a6.6 6.6 0 1 0 -13.2 0zM466.52 478.57 a6.6 6.6 0 1 0 13.2 0 a6.6 6.6 0 1 0 -13.2 0zM409.37 445.57 a6.6 6.6 0 1 0 13.2 0 a6.6 6.6 0 1 0 -13.2 0zM409.37 379.57 a6.6 6.6 0 1 0 13.2 0 a6.6 6.6 0 1 0 -13.2 0zM580.84 478.57 a6.6 6.6 0 1 0 13.2 0 a6.6 6.6 0 1 0 -13.2 0zM580.84 544.57 a6.6 6.6 0 1 0 13.2 0 a6.6 6.6 0 1 0 -13.2 0zM523.68 577.57 a6.6 6.6 0 1 0 13.2 0 a6.6 6.6 0 1 0 -13.2 0zM466.52 544.57 a6.6 6.6 0 1 0 13.2 0 a6.6 6.6 0 1 0 -13.2 0zM523.68 643.57 a6.6 6.6 0 1 0 13.2 0 a6.6 6.6 0 1 0 -13.2 0zM523.68 841.57 a6.6 6.6 0 1 0 13.2 0 a6.6 6.6 0 1 0 -13.2 0zM580.84 874.57 a6.6 6.6 0 1 0 13.2 0 a6.6 6.6 0 1 0 -13.2 0zM580.84 940.57 a6.6 6.6 0 1 0 13.2 0 a6.6 6.6 0 1 0 -13.2 0zM523.68 973.57 a6.6 6.6 0 1 0 13.2 0 a6.6 6.6 0 1 0 -13.2 0zM466.52 940.57 a6.6 6.6 0 1 0 13.2 0 a6.6 6.6 0 1 0 -13.2 0zM466.52 874.57 a6.6 6.6 0 1 0 13.2 0 a6.6 6.6 0 1 0 -13.2 0zM523.68 1039.57 a6.6 6.6 0 1 0 13.2 0 a6.6 6.6 0 1 0 -13.2 0zM466.52 1072.57 a6.6 6.6 0 1 0 13.2 0 a6.6 6.6 0 1 0 -13.2 0zM409.37 1039.57 a6.6 6.6 0 1 0 13.2 0 a6.6 6.6 0 1 0 -13.2 0zM409.37 973.57 a6.6 6.6 0 1 0 13.2 0 a6.6 6.6 0 1 0 -13.2 0zM580.84 346.57 a6.6 6.6 0 1 0 13.2 0 a6.6 6.6 0 1 0 -13.2 0zM638 379.57 a6.6 6.6 0 1 0 13.2 0 a6.6 6.6 0 1 0 -13.2 0zM638 445.57 a6.6 6.6 0 1 0 13.2 0 a6.6 6.6 0 1 0 -13.2 0zM695.16 478.57 a6.6 6.6 0 1 0 13.2 0 a6.6 6.6 0 1 0 -13.2 0zM695.16 544.57 a6.6 6.6 0 1 0 13.2 0 a6.6 6.6 0 1 0 -13.2 0zM638 577.57 a6.6 6.6 0 1 0 13.2 0 a6.6 6.6 0 1 0 -13.2 0zM638 841.57 a6.6 6.6 0 1 0 13.2 0 a6.6 6.6 0 1 0 -13.2 0zM695.16 874.57 a6.6 6.6 0 1 0 13.2 0 a6.6 6.6 0 1 0 -13.2 0zM695.16 940.57 a6.6 6.6 0 1 0 13.2 0 a6.6 6.6 0 1 0 -13.2 0zM638 973.57 a6.6 6.6 0 1 0 13.2 0 a6.6 6.6 0 1 0 -13.2 0zM638 1039.57 a6.6 6.6 0 1 0 13.2 0 a6.6 6.6 0 1 0 -13.2 0zM580.84 1072.57 a6.6 6.6 0 1 0 13.2 0 a6.6 6.6 0 1 0 -13.2 0zM752.32 247.57 a6.6 6.6 0 1 0 13.2 0 a6.6 6.6 0 1 0 -13.2 0zM809.48 280.57 a6.6 6.6 0 1 0 13.2 0 a6.6 6.6 0 1 0 -13.2 0zM809.48 346.57 a6.6 6.6 0 1 0 13.2 0 a6.6 6.6 0 1 0 -13.2 0zM752.32 379.57 a6.6 6.6 0 1 0 13.2 0 a6.6 6.6 0 1 0 -13.2 0zM695.16 346.57 a6.6 6.6 0 1 0 13.2 0 a6.6 6.6 0 1 0 -13.2 0zM695.16 280.57 a6.6 6.6 0 1 0 13.2 0 a6.6 6.6 0 1 0 -13.2 0zM752.32 445.57 a6.6 6.6 0 1 0 13.2 0 a6.6 6.6 0 1 0 -13.2 0zM695.16 742.57 a6.6 6.6 0 1 0 13.2 0 a6.6 6.6 0 1 0 -13.2 0zM752.32 775.57 a6.6 6.6 0 1 0 13.2 0 a6.6 6.6 0 1 0 -13.2 0zM752.32 841.57 a6.6 6.6 0 1 0 13.2 0 a6.6 6.6 0 1 0 -13.2 0zM638 775.57 a6.6 6.6 0 1 0 13.2 0 a6.6 6.6 0 1 0 -13.2 0zM752.32 973.57 a6.6 6.6 0 1 0 13.2 0 a6.6 6.6 0 1 0 -13.2 0zM752.32 1039.57 a6.6 6.6 0 1 0 13.2 0 a6.6 6.6 0 1 0 -13.2 0zM695.16 1072.57 a6.6 6.6 0 1 0 13.2 0 a6.6 6.6 0 1 0 -13.2 0zM809.48 -49.43 a6.6 6.6 0 1 0 13.2 0 a6.6 6.6 0 1 0 -13.2 0zM866.64 -16.43 a6.6 6.6 0 1 0 13.2 0 a6.6 6.6 0 1 0 -13.2 0zM866.64 49.57 a6.6 6.6 0 1 0 13.2 0 a6.6 6.6 0 1 0 -13.2 0zM809.48 82.57 a6.6 6.6 0 1 0 13.2 0 a6.6 6.6 0 1 0 -13.2 0zM752.32 49.57 a6.6 6.6 0 1 0 13.2 0 a6.6 6.6 0 1 0 -13.2 0zM752.32 -16.43 a6.6 6.6 0 1 0 13.2 0 a6.6 6.6 0 1 0 -13.2 0zM923.8 82.57 a6.6 6.6 0 1 0 13.2 0 a6.6 6.6 0 1 0 -13.2 0zM923.8 148.57 a6.6 6.6 0 1 0 13.2 0 a6.6 6.6 0 1 0 -13.2 0zM866.64 181.57 a6.6 6.6 0 1 0 13.2 0 a6.6 6.6 0 1 0 -13.2 0zM809.48 148.57 a6.6 6.6 0 1 0 13.2 0 a6.6 6.6 0 1 0 -13.2 0zM866.64 379.57 a6.6 6.6 0 1 0 13.2 0 a6.6 6.6 0 1 0 -13.2 0zM866.64 445.57 a6.6 6.6 0 1 0 13.2 0 a6.6 6.6 0 1 0 -13.2 0zM809.48 478.57 a6.6 6.6 0 1 0 13.2 0 a6.6 6.6 0 1 0 -13.2 0zM809.48 544.57 a6.6 6.6 0 1 0 13.2 0 a6.6 6.6 0 1 0 -13.2 0zM866.64 577.57 a6.6 6.6 0 1 0 13.2 0 a6.6 6.6 0 1 0 -13.2 0zM866.64 643.57 a6.6 6.6 0 1 0 13.2 0 a6.6 6.6 0 1 0 -13.2 0zM809.48 676.57 a6.6 6.6 0 1 0 13.2 0 a6.6 6.6 0 1 0 -13.2 0zM752.32 643.57 a6.6 6.6 0 1 0 13.2 0 a6.6 6.6 0 1 0 -13.2 0zM752.32 577.57 a6.6 6.6 0 1 0 13.2 0 a6.6 6.6 0 1 0 -13.2 0zM809.48 742.57 a6.6 6.6 0 1 0 13.2 0 a6.6 6.6 0 1 0 -13.2 0zM866.64 775.57 a6.6 6.6 0 1 0 13.2 0 a6.6 6.6 0 1 0 -13.2 0zM866.64 841.57 a6.6 6.6 0 1 0 13.2 0 a6.6 6.6 0 1 0 -13.2 0zM809.48 874.57 a6.6 6.6 0 1 0 13.2 0 a6.6 6.6 0 1 0 -13.2 0zM809.48 940.57 a6.6 6.6 0 1 0 13.2 0 a6.6 6.6 0 1 0 -13.2 0zM866.64 973.57 a6.6 6.6 0 1 0 13.2 0 a6.6 6.6 0 1 0 -13.2 0zM866.64 1039.57 a6.6 6.6 0 1 0 13.2 0 a6.6 6.6 0 1 0 -13.2 0zM809.48 1072.57 a6.6 6.6 0 1 0 13.2 0 a6.6 6.6 0 1 0 -13.2 0zM980.96 49.57 a6.6 6.6 0 1 0 13.2 0 a6.6 6.6 0 1 0 -13.2 0zM1038.12 82.57 a6.6 6.6 0 1 0 13.2 0 a6.6 6.6 0 1 0 -13.2 0zM1038.12 148.57 a6.6 6.6 0 1 0 13.2 0 a6.6 6.6 0 1 0 -13.2 0zM980.96 181.57 a6.6 6.6 0 1 0 13.2 0 a6.6 6.6 0 1 0 -13.2 0zM980.96 247.57 a6.6 6.6 0 1 0 13.2 0 a6.6 6.6 0 1 0 -13.2 0zM1038.12 280.57 a6.6 6.6 0 1 0 13.2 0 a6.6 6.6 0 1 0 -13.2 0zM1038.12 346.57 a6.6 6.6 0 1 0 13.2 0 a6.6 6.6 0 1 0 -13.2 0zM980.96 379.57 a6.6 6.6 0 1 0 13.2 0 a6.6 6.6 0 1 0 -13.2 0zM923.8 346.57 a6.6 6.6 0 1 0 13.2 0 a6.6 6.6 0 1 0 -13.2 0zM923.8 280.57 a6.6 6.6 0 1 0 13.2 0 a6.6 6.6 0 1 0 -13.2 0zM923.8 742.57 a6.6 6.6 0 1 0 13.2 0 a6.6 6.6 0 1 0 -13.2 0zM980.96 775.57 a6.6 6.6 0 1 0 13.2 0 a6.6 6.6 0 1 0 -13.2 0zM980.96 841.57 a6.6 6.6 0 1 0 13.2 0 a6.6 6.6 0 1 0 -13.2 0zM923.8 874.57 a6.6 6.6 0 1 0 13.2 0 a6.6 6.6 0 1 0 -13.2 0zM923.8 940.57 a6.6 6.6 0 1 0 13.2 0 a6.6 6.6 0 1 0 -13.2 0zM980.96 973.57 a6.6 6.6 0 1 0 13.2 0 a6.6 6.6 0 1 0 -13.2 0zM980.96 1039.57 a6.6 6.6 0 1 0 13.2 0 a6.6 6.6 0 1 0 -13.2 0zM923.8 1072.57 a6.6 6.6 0 1 0 13.2 0 a6.6 6.6 0 1 0 -13.2 0zM1095.28 49.57 a6.6 6.6 0 1 0 13.2 0 a6.6 6.6 0 1 0 -13.2 0zM1152.44 82.57 a6.6 6.6 0 1 0 13.2 0 a6.6 6.6 0 1 0 -13.2 0zM1152.44 148.57 a6.6 6.6 0 1 0 13.2 0 a6.6 6.6 0 1 0 -13.2 0zM1095.28 181.57 a6.6 6.6 0 1 0 13.2 0 a6.6 6.6 0 1 0 -13.2 0zM1095.28 247.57 a6.6 6.6 0 1 0 13.2 0 a6.6 6.6 0 1 0 -13.2 0zM1152.44 280.57 a6.6 6.6 0 1 0 13.2 0 a6.6 6.6 0 1 0 -13.2 0zM1152.44 346.57 a6.6 6.6 0 1 0 13.2 0 a6.6 6.6 0 1 0 -13.2 0zM1095.28 379.57 a6.6 6.6 0 1 0 13.2 0 a6.6 6.6 0 1 0 -13.2 0zM1095.28 445.57 a6.6 6.6 0 1 0 13.2 0 a6.6 6.6 0 1 0 -13.2 0zM1038.12 478.57 a6.6 6.6 0 1 0 13.2 0 a6.6 6.6 0 1 0 -13.2 0zM980.96 445.57 a6.6 6.6 0 1 0 13.2 0 a6.6 6.6 0 1 0 -13.2 0zM1152.44 478.57 a6.6 6.6 0 1 0 13.2 0 a6.6 6.6 0 1 0 -13.2 0zM1152.44 544.57 a6.6 6.6 0 1 0 13.2 0 a6.6 6.6 0 1 0 -13.2 0zM1095.28 577.57 a6.6 6.6 0 1 0 13.2 0 a6.6 6.6 0 1 0 -13.2 0zM1038.12 544.57 a6.6 6.6 0 1 0 13.2 0 a6.6 6.6 0 1 0 -13.2 0zM1095.28 643.57 a6.6 6.6 0 1 0 13.2 0 a6.6 6.6 0 1 0 -13.2 0zM1038.12 676.57 a6.6 6.6 0 1 0 13.2 0 a6.6 6.6 0 1 0 -13.2 0zM980.96 643.57 a6.6 6.6 0 1 0 13.2 0 a6.6 6.6 0 1 0 -13.2 0zM980.96 577.57 a6.6 6.6 0 1 0 13.2 0 a6.6 6.6 0 1 0 -13.2 0zM1095.28 841.57 a6.6 6.6 0 1 0 13.2 0 a6.6 6.6 0 1 0 -13.2 0zM1152.44 874.57 a6.6 6.6 0 1 0 13.2 0 a6.6 6.6 0 1 0 -13.2 0zM1152.44 940.57 a6.6 6.6 0 1 0 13.2 0 a6.6 6.6 0 1 0 -13.2 0zM1095.28 973.57 a6.6 6.6 0 1 0 13.2 0 a6.6 6.6 0 1 0 -13.2 0zM1038.12 940.57 a6.6 6.6 0 1 0 13.2 0 a6.6 6.6 0 1 0 -13.2 0zM1038.12 874.57 a6.6 6.6 0 1 0 13.2 0 a6.6 6.6 0 1 0 -13.2 0zM1095.28 1039.57 a6.6 6.6 0 1 0 13.2 0 a6.6 6.6 0 1 0 -13.2 0zM1038.12 1072.57 a6.6 6.6 0 1 0 13.2 0 a6.6 6.6 0 1 0 -13.2 0zM1209.6 445.57 a6.6 6.6 0 1 0 13.2 0 a6.6 6.6 0 1 0 -13.2 0zM1266.75 478.57 a6.6 6.6 0 1 0 13.2 0 a6.6 6.6 0 1 0 -13.2 0zM1266.75 544.57 a6.6 6.6 0 1 0 13.2 0 a6.6 6.6 0 1 0 -13.2 0zM1209.6 577.57 a6.6 6.6 0 1 0 13.2 0 a6.6 6.6 0 1 0 -13.2 0zM1152.44 742.57 a6.6 6.6 0 1 0 13.2 0 a6.6 6.6 0 1 0 -13.2 0zM1209.6 775.57 a6.6 6.6 0 1 0 13.2 0 a6.6 6.6 0 1 0 -13.2 0zM1209.6 841.57 a6.6 6.6 0 1 0 13.2 0 a6.6 6.6 0 1 0 -13.2 0zM1095.28 775.57 a6.6 6.6 0 1 0 13.2 0 a6.6 6.6 0 1 0 -13.2 0zM1266.75 -49.43 a6.6 6.6 0 1 0 13.2 0 a6.6 6.6 0 1 0 -13.2 0zM1323.91 -16.43 a6.6 6.6 0 1 0 13.2 0 a6.6 6.6 0 1 0 -13.2 0zM1323.91 49.57 a6.6 6.6 0 1 0 13.2 0 a6.6 6.6 0 1 0 -13.2 0zM1266.75 82.57 a6.6 6.6 0 1 0 13.2 0 a6.6 6.6 0 1 0 -13.2 0zM1209.6 49.57 a6.6 6.6 0 1 0 13.2 0 a6.6 6.6 0 1 0 -13.2 0zM1209.6 -16.43 a6.6 6.6 0 1 0 13.2 0 a6.6 6.6 0 1 0 -13.2 0zM1381.07 82.57 a6.6 6.6 0 1 0 13.2 0 a6.6 6.6 0 1 0 -13.2 0zM1381.07 148.57 a6.6 6.6 0 1 0 13.2 0 a6.6 6.6 0 1 0 -13.2 0zM1323.91 181.57 a6.6 6.6 0 1 0 13.2 0 a6.6 6.6 0 1 0 -13.2 0zM1266.75 148.57 a6.6 6.6 0 1 0 13.2 0 a6.6 6.6 0 1 0 -13.2 0zM1323.91 247.57 a6.6 6.6 0 1 0 13.2 0 a6.6 6.6 0 1 0 -13.2 0zM1266.75 280.57 a6.6 6.6 0 1 0 13.2 0 a6.6 6.6 0 1 0 -13.2 0zM1209.6 247.57 a6.6 6.6 0 1 0 13.2 0 a6.6 6.6 0 1 0 -13.2 0zM1209.6 181.57 a6.6 6.6 0 1 0 13.2 0 a6.6 6.6 0 1 0 -13.2 0zM1381.07 280.57 a6.6 6.6 0 1 0 13.2 0 a6.6 6.6 0 1 0 -13.2 0zM1381.07 346.57 a6.6 6.6 0 1 0 13.2 0 a6.6 6.6 0 1 0 -13.2 0zM1323.91 379.57 a6.6 6.6 0 1 0 13.2 0 a6.6 6.6 0 1 0 -13.2 0zM1266.75 346.57 a6.6 6.6 0 1 0 13.2 0 a6.6 6.6 0 1 0 -13.2 0zM1323.91 445.57 a6.6 6.6 0 1 0 13.2 0 a6.6 6.6 0 1 0 -13.2 0zM1381.07 478.57 a6.6 6.6 0 1 0 13.2 0 a6.6 6.6 0 1 0 -13.2 0zM1381.07 544.57 a6.6 6.6 0 1 0 13.2 0 a6.6 6.6 0 1 0 -13.2 0zM1323.91 577.57 a6.6 6.6 0 1 0 13.2 0 a6.6 6.6 0 1 0 -13.2 0zM1323.91 841.57 a6.6 6.6 0 1 0 13.2 0 a6.6 6.6 0 1 0 -13.2 0zM1381.07 874.57 a6.6 6.6 0 1 0 13.2 0 a6.6 6.6 0 1 0 -13.2 0zM1381.07 940.57 a6.6 6.6 0 1 0 13.2 0 a6.6 6.6 0 1 0 -13.2 0zM1323.91 973.57 a6.6 6.6 0 1 0 13.2 0 a6.6 6.6 0 1 0 -13.2 0zM1266.75 940.57 a6.6 6.6 0 1 0 13.2 0 a6.6 6.6 0 1 0 -13.2 0zM1266.75 874.57 a6.6 6.6 0 1 0 13.2 0 a6.6 6.6 0 1 0 -13.2 0zM1381.07 -49.43 a6.6 6.6 0 1 0 13.2 0 a6.6 6.6 0 1 0 -13.2 0zM1438.23 -16.43 a6.6 6.6 0 1 0 13.2 0 a6.6 6.6 0 1 0 -13.2 0zM1438.23 49.57 a6.6 6.6 0 1 0 13.2 0 a6.6 6.6 0 1 0 -13.2 0zM1495.39 82.57 a6.6 6.6 0 1 0 13.2 0 a6.6 6.6 0 1 0 -13.2 0zM1495.39 148.57 a6.6 6.6 0 1 0 13.2 0 a6.6 6.6 0 1 0 -13.2 0zM1438.23 181.57 a6.6 6.6 0 1 0 13.2 0 a6.6 6.6 0 1 0 -13.2 0zM1438.23 379.57 a6.6 6.6 0 1 0 13.2 0 a6.6 6.6 0 1 0 -13.2 0zM1438.23 445.57 a6.6 6.6 0 1 0 13.2 0 a6.6 6.6 0 1 0 -13.2 0zM1438.23 841.57 a6.6 6.6 0 1 0 13.2 0 a6.6 6.6 0 1 0 -13.2 0zM1495.39 874.57 a6.6 6.6 0 1 0 13.2 0 a6.6 6.6 0 1 0 -13.2 0zM1495.39 940.57 a6.6 6.6 0 1 0 13.2 0 a6.6 6.6 0 1 0 -13.2 0zM1438.23 973.57 a6.6 6.6 0 1 0 13.2 0 a6.6 6.6 0 1 0 -13.2 0zM1438.23 1039.57 a6.6 6.6 0 1 0 13.2 0 a6.6 6.6 0 1 0 -13.2 0zM1381.07 1072.57 a6.6 6.6 0 1 0 13.2 0 a6.6 6.6 0 1 0 -13.2 0zM1323.91 1039.57 a6.6 6.6 0 1 0 13.2 0 a6.6 6.6 0 1 0 -13.2 0z" fill="url(#SvgjsLinearGradient2320)"></path><path d="M73.43 36.21L109.81 57.21L109.81 99.21L73.43 120.21L37.06 99.21L37.06 57.21zM37.06 225.21L73.43 246.21L73.43 288.21L37.06 309.21L0.69 288.21L0.69 246.21zM37.06 351.21L73.43 372.21L73.43 414.21L37.06 435.21L0.69 414.21L0.69 372.21zM73.43 792.21L109.81 813.21L109.81 855.21L73.43 876.21L37.06 855.21L37.06 813.21zM109.81 -26.79L146.18 -5.79L146.18 36.21L109.81 57.21L73.43 36.21L73.43 -5.79zM109.81 99.21L146.18 120.21L146.18 162.21L109.81 183.21L73.43 162.21L73.43 120.21zM109.81 603.21L146.18 624.21L146.18 666.21L109.81 687.21L73.43 666.21L73.43 624.21zM218.93 36.21L255.3 57.21L255.3 99.21L218.93 120.21L182.56 99.21L182.56 57.21zM218.93 918.21L255.3 939.21L255.3 981.21L218.93 1002.21L182.56 981.21L182.56 939.21zM255.3 -26.79L291.68 -5.79L291.68 36.21L255.3 57.21L218.93 36.21L218.93 -5.79zM255.3 477.21L291.68 498.21L291.68 540.21L255.3 561.21L218.93 540.21L218.93 498.21zM291.68 540.21L328.05 561.21L328.05 603.21L291.68 624.21L255.3 603.21L255.3 561.21zM291.68 666.21L328.05 687.21L328.05 729.21L291.68 750.21L255.3 729.21L255.3 687.21zM255.3 855.21L291.68 876.21L291.68 918.21L255.3 939.21L218.93 918.21L218.93 876.21zM291.68 918.21L328.05 939.21L328.05 981.21L291.68 1002.21L255.3 981.21L255.3 939.21zM328.05 99.21L364.43 120.21L364.43 162.21L328.05 183.21L291.68 162.21L291.68 120.21zM364.43 162.21L400.8 183.21L400.8 225.21L364.43 246.21L328.05 225.21L328.05 183.21zM328.05 225.21L364.43 246.21L364.43 288.21L328.05 309.21L291.68 288.21L291.68 246.21zM364.43 666.21L400.8 687.21L400.8 729.21L364.43 750.21L328.05 729.21L328.05 687.21zM437.18 36.21L473.55 57.21L473.55 99.21L437.18 120.21L400.8 99.21L400.8 57.21zM437.18 162.21L473.55 183.21L473.55 225.21L437.18 246.21L400.8 225.21L400.8 183.21zM400.8 225.21L437.18 246.21L437.18 288.21L400.8 309.21L364.43 288.21L364.43 246.21zM437.18 540.21L473.55 561.21L473.55 603.21L437.18 624.21L400.8 603.21L400.8 561.21zM437.18 792.21L473.55 813.21L473.55 855.21L437.18 876.21L400.8 855.21L400.8 813.21zM400.8 981.21L437.18 1002.21L437.18 1044.21L400.8 1065.21L364.43 1044.21L364.43 1002.21zM473.55 -26.79L509.92 -5.79L509.92 36.21L473.55 57.21L437.18 36.21L437.18 -5.79zM509.92 36.21L546.3 57.21L546.3 99.21L509.92 120.21L473.55 99.21L473.55 57.21zM473.55 225.21L509.92 246.21L509.92 288.21L473.55 309.21L437.18 288.21L437.18 246.21zM473.55 981.21L509.92 1002.21L509.92 1044.21L473.55 1065.21L437.18 1044.21L437.18 1002.21zM546.3 225.21L582.67 246.21L582.67 288.21L546.3 309.21L509.92 288.21L509.92 246.21zM546.3 855.21L582.67 876.21L582.67 918.21L546.3 939.21L509.92 918.21L509.92 876.21zM582.67 918.21L619.05 939.21L619.05 981.21L582.67 1002.21L546.3 981.21L546.3 939.21zM619.05 225.21L655.42 246.21L655.42 288.21L619.05 309.21L582.67 288.21L582.67 246.21zM655.42 288.21L691.79 309.21L691.79 351.21L655.42 372.21L619.05 351.21L619.05 309.21zM619.05 729.21L655.42 750.21L655.42 792.21L619.05 813.21L582.67 792.21L582.67 750.21zM619.05 855.21L655.42 876.21L655.42 918.21L619.05 939.21L582.67 918.21L582.67 876.21zM655.42 918.21L691.79 939.21L691.79 981.21L655.42 1002.21L619.05 981.21L619.05 939.21zM728.17 288.21L764.54 309.21L764.54 351.21L728.17 372.21L691.79 351.21L691.79 309.21zM728.17 540.21L764.54 561.21L764.54 603.21L728.17 624.21L691.79 603.21L691.79 561.21zM691.79 729.21L728.17 750.21L728.17 792.21L691.79 813.21L655.42 792.21L655.42 750.21zM728.17 918.21L764.54 939.21L764.54 981.21L728.17 1002.21L691.79 981.21L691.79 939.21zM764.54 -26.79L800.92 -5.79L800.92 36.21L764.54 57.21L728.17 36.21L728.17 -5.79zM764.54 225.21L800.92 246.21L800.92 288.21L764.54 309.21L728.17 288.21L728.17 246.21zM800.92 288.21L837.29 309.21L837.29 351.21L800.92 372.21L764.54 351.21L764.54 309.21zM764.54 477.21L800.92 498.21L800.92 540.21L764.54 561.21L728.17 540.21L728.17 498.21zM800.92 792.21L837.29 813.21L837.29 855.21L800.92 876.21L764.54 855.21L764.54 813.21zM873.66 36.21L910.04 57.21L910.04 99.21L873.66 120.21L837.29 99.21L837.29 57.21zM873.66 162.21L910.04 183.21L910.04 225.21L873.66 246.21L837.29 225.21L837.29 183.21zM837.29 225.21L873.66 246.21L873.66 288.21L837.29 309.21L800.92 288.21L800.92 246.21zM873.66 288.21L910.04 309.21L910.04 351.21L873.66 372.21L837.29 351.21L837.29 309.21zM837.29 351.21L873.66 372.21L873.66 414.21L837.29 435.21L800.92 414.21L800.92 372.21zM873.66 414.21L910.04 435.21L910.04 477.21L873.66 498.21L837.29 477.21L837.29 435.21zM873.66 666.21L910.04 687.21L910.04 729.21L873.66 750.21L837.29 729.21L837.29 687.21zM837.29 729.21L873.66 750.21L873.66 792.21L837.29 813.21L800.92 792.21L800.92 750.21zM873.66 792.21L910.04 813.21L910.04 855.21L873.66 876.21L837.29 855.21L837.29 813.21zM910.04 351.21L946.41 372.21L946.41 414.21L910.04 435.21L873.66 414.21L873.66 372.21zM946.41 414.21L982.79 435.21L982.79 477.21L946.41 498.21L910.04 477.21L910.04 435.21zM946.41 540.21L982.79 561.21L982.79 603.21L946.41 624.21L910.04 603.21L910.04 561.21zM946.41 666.21L982.79 687.21L982.79 729.21L946.41 750.21L910.04 729.21L910.04 687.21zM910.04 729.21L946.41 750.21L946.41 792.21L910.04 813.21L873.66 792.21L873.66 750.21zM946.41 918.21L982.79 939.21L982.79 981.21L946.41 1002.21L910.04 981.21L910.04 939.21zM982.79 -26.79L1019.16 -5.79L1019.16 36.21L982.79 57.21L946.41 36.21L946.41 -5.79zM982.79 225.21L1019.16 246.21L1019.16 288.21L982.79 309.21L946.41 288.21L946.41 246.21zM1019.16 414.21L1055.53 435.21L1055.53 477.21L1019.16 498.21L982.79 477.21L982.79 435.21zM982.79 477.21L1019.16 498.21L1019.16 540.21L982.79 561.21L946.41 540.21L946.41 498.21zM1019.16 540.21L1055.53 561.21L1055.53 603.21L1019.16 624.21L982.79 603.21L982.79 561.21zM1019.16 666.21L1055.53 687.21L1055.53 729.21L1019.16 750.21L982.79 729.21L982.79 687.21zM1019.16 918.21L1055.53 939.21L1055.53 981.21L1019.16 1002.21L982.79 981.21L982.79 939.21zM1055.53 225.21L1091.91 246.21L1091.91 288.21L1055.53 309.21L1019.16 288.21L1019.16 246.21zM1091.91 414.21L1128.28 435.21L1128.28 477.21L1091.91 498.21L1055.53 477.21L1055.53 435.21zM1055.53 603.21L1091.91 624.21L1091.91 666.21L1055.53 687.21L1019.16 666.21L1019.16 624.21zM1055.53 729.21L1091.91 750.21L1091.91 792.21L1055.53 813.21L1019.16 792.21L1019.16 750.21zM1091.91 918.21L1128.28 939.21L1128.28 981.21L1091.91 1002.21L1055.53 981.21L1055.53 939.21zM1128.28 -26.79L1164.66 -5.79L1164.66 36.21L1128.28 57.21L1091.91 36.21L1091.91 -5.79zM1164.66 540.21L1201.03 561.21L1201.03 603.21L1164.66 624.21L1128.28 603.21L1128.28 561.21zM1164.66 666.21L1201.03 687.21L1201.03 729.21L1164.66 750.21L1128.28 729.21L1128.28 687.21zM1128.28 729.21L1164.66 750.21L1164.66 792.21L1128.28 813.21L1091.91 792.21L1091.91 750.21zM1128.28 981.21L1164.66 1002.21L1164.66 1044.21L1128.28 1065.21L1091.91 1044.21L1091.91 1002.21zM1237.41 288.21L1273.78 309.21L1273.78 351.21L1237.41 372.21L1201.03 351.21L1201.03 309.21zM1237.41 540.21L1273.78 561.21L1273.78 603.21L1237.41 624.21L1201.03 603.21L1201.03 561.21zM1201.03 603.21L1237.41 624.21L1237.41 666.21L1201.03 687.21L1164.66 666.21L1164.66 624.21zM1273.78 99.21L1310.15 120.21L1310.15 162.21L1273.78 183.21L1237.41 162.21L1237.41 120.21zM1310.15 162.21L1346.53 183.21L1346.53 225.21L1310.15 246.21L1273.78 225.21L1273.78 183.21zM1310.15 666.21L1346.53 687.21L1346.53 729.21L1310.15 750.21L1273.78 729.21L1273.78 687.21zM1273.78 855.21L1310.15 876.21L1310.15 918.21L1273.78 939.21L1237.41 918.21L1237.41 876.21zM1346.53 99.21L1382.9 120.21L1382.9 162.21L1346.53 183.21L1310.15 162.21L1310.15 120.21zM1346.53 225.21L1382.9 246.21L1382.9 288.21L1346.53 309.21L1310.15 288.21L1310.15 246.21zM1382.9 414.21L1419.28 435.21L1419.28 477.21L1382.9 498.21L1346.53 477.21L1346.53 435.21zM1346.53 477.21L1382.9 498.21L1382.9 540.21L1346.53 561.21L1310.15 540.21L1310.15 498.21zM1382.9 540.21L1419.28 561.21L1419.28 603.21L1382.9 624.21L1346.53 603.21L1346.53 561.21zM1382.9 792.21L1419.28 813.21L1419.28 855.21L1382.9 876.21L1346.53 855.21L1346.53 813.21zM1382.9 918.21L1419.28 939.21L1419.28 981.21L1382.9 1002.21L1346.53 981.21L1346.53 939.21zM1455.65 36.21L1492.02 57.21L1492.02 99.21L1455.65 120.21L1419.28 99.21L1419.28 57.21zM1455.65 792.21L1492.02 813.21L1492.02 855.21L1455.65 876.21L1419.28 855.21L1419.28 813.21zM1419.28 981.21L1455.65 1002.21L1455.65 1044.21L1419.28 1065.21L1382.9 1044.21L1382.9 1002.21z" stroke="url(#SvgjsLinearGradient2321)" stroke-width="2"></path></g><defs><mask id="SvgjsMask2318"><rect width="1440" height="1000" fill="#ffffff"></rect></mask><linearGradient x1="7.64%" y1="-11%" x2="92.36%" y2="111%" gradientUnits="userSpaceOnUse" id="SvgjsLinearGradient2319"><stop stop-color="rgba(14, 42, 71, 1)" offset="0.29"></stop><stop stop-color="rgba(20, 33, 61, 1)" offset="0.78"></stop></linearGradient><linearGradient x1="110.01599999999999" y1="-110" x2="1329.984" y2="1110" gradientUnits="userSpaceOnUse" id="SvgjsLinearGradient2320"><stop stop-color="#0e2a47" offset="0"></stop><stop stop-color="rgba(0, 68, 155, 1)" offset="1"></stop></linearGradient><linearGradient x1="110.01599999999999" y1="-110" x2="1329.984" y2="1110" gradientUnits="userSpaceOnUse" id="SvgjsLinearGradient2321"><stop stop-color="rgba(14, 42, 71, 1)" offset="0"></stop><stop stop-color="rgba(252, 163, 17, 1)" offset="1"></stop></linearGradient></defs></svg>