<svg xmlns="http://www.w3.org/2000/svg" version="1.1" xmlns:xlink="http://www.w3.org/1999/xlink" xmlns:svgjs="http://svgjs.com/svgjs" width="300" height="200" preserveAspectRatio="none" viewBox="0 0 300 200"><g mask="url(&quot;#SvgjsMask1087&quot;)" fill="none"><rect width="300" height="200" x="0" y="0" fill="rgba(255, 183, 66, 1)"></rect><path d="M0,109.196C20.093,108.756,32.317,87.394,48.544,75.536C63.614,64.523,80.466,56.704,91.957,41.996C105.825,24.245,126.307,4.51,121.17,-17.422C115.942,-39.743,86.172,-44.838,68.265,-59.152C54.193,-70.401,44.668,-88.236,27.178,-92.558C9.895,-96.829,-7.073,-87.27,-24.069,-81.971C-40.764,-76.766,-59.89,-75.034,-71.364,-61.837C-82.844,-48.634,-81.699,-29.414,-84.746,-12.185C-87.903,5.668,-96.081,23.982,-89.532,40.888C-82.888,58.04,-64.554,66.535,-49.93,77.692C-33.961,89.876,-20.081,109.636,0,109.196" fill="#d18100"></path><path d="M300 304.852C319.434 309.486 342.692 302.022 355.975 287.098 369.03499999999997 272.424 360.501 249.054 366.35 230.301 371.16700000000003 214.856 388.996 203.546 387.044 187.485 385.092 171.424 367.069 163.289 356.698 150.871 346.08299999999997 138.16 340.024 121.323 325.362 113.625 309.336 105.211 290.117 102.123 272.611 106.723 254.899 111.377 240.226 124.056 229.414 138.837 219.11700000000002 152.914 216.917 170.461 213.481 187.56 209.841 205.678 199.308 225.788 208.752 241.672 218.293 257.72 243.551 253.324 258.901 263.952 275.12 275.182 280.811 300.277 300 304.852" fill="#ffe2b2"></path></g><defs><mask id="SvgjsMask1087"><rect width="300" height="200" fill="#ffffff"></rect></mask></defs></svg>